<?xml version="1.0" encoding="UTF-8" standalone="no"?>
<!DOCTYPE svg PUBLIC "-//W3C//DTD SVG 1.1//EN"
 "http://www.w3.org/Graphics/SVG/1.1/DTD/svg11.dtd">
<!-- Generated by graphviz version 2.47.0 (20210316.0004)
 -->
<!-- Title: dependencies Pages: 1 -->
<svg width="504pt" height="211pt"
 viewBox="0.00 0.00 504.00 211.00" xmlns="http://www.w3.org/2000/svg" xmlns:xlink="http://www.w3.org/1999/xlink">
<g id="graph0" class="graph" transform="scale(1 1) rotate(0) translate(4 207)">
<title>dependencies</title>
<polygon fill="white" stroke="transparent" points="-4,4 -4,-207 500,-207 500,4 -4,4"/>
<text text-anchor="start" x="227.01" y="-42.4" font-family="sans-serif" font-weight="bold" font-size="14.00">Legend</text>
<polygon fill="#ffffb3" stroke="transparent" points="14,-10 14,-30 34,-30 34,-10 14,-10"/>
<text text-anchor="start" x="37.63" y="-15.4" font-family="sans-serif" font-size="14.00"> &#160;Declarations</text>
<polygon fill="#8dd3c7" stroke="transparent" points="127,-10 127,-30 147,-30 147,-10 127,-10"/>
<text text-anchor="start" x="150.73" y="-15.4" font-family="sans-serif" font-size="14.00"> &#160;Module</text>
<polygon fill="#80b1d3" stroke="transparent" points="213,-10 213,-30 233,-30 233,-10 213,-10"/>
<text text-anchor="start" x="236.78" y="-15.4" font-family="sans-serif" font-size="14.00"> &#160;Bootstrap</text>
<polygon fill="#fdb462" stroke="transparent" points="310,-10 310,-30 330,-30 330,-10 310,-10"/>
<text text-anchor="start" x="333.67" y="-15.4" font-family="sans-serif" font-size="14.00"> &#160;Providers</text>
<polygon fill="#fb8072" stroke="transparent" points="406,-10 406,-30 426,-30 426,-10 406,-10"/>
<text text-anchor="start" x="429.73" y="-15.4" font-family="sans-serif" font-size="14.00"> &#160;Exports</text>
<g id="clust1" class="cluster">
<title>cluster_FilesModule</title>
<polygon fill="none" stroke="black" stroke-dasharray="1,5" points="44,-70 44,-195 452,-195 452,-70 44,-70"/>
</g>
<g id="clust6" class="cluster">
<title>cluster_FilesModule_providers</title>
<polygon fill="none" stroke="black" points="52,-78 52,-130 444,-130 444,-78 52,-78"/>
</g>
<!-- FilesService -->
<g id="node1" class="node">
<title>FilesService</title>
<ellipse fill="#fdb462" stroke="black" cx="377" cy="-104" rx="58.54" ry="18"/>
<text text-anchor="middle" x="377" y="-99.8" font-family="Times,serif" font-size="14.00">FilesService</text>
</g>
<!-- FilesModule -->
<g id="node3" class="node">
<title>FilesModule</title>
<polygon fill="#8dd3c7" stroke="black" points="321.27,-187 318.27,-191 297.27,-191 294.27,-187 234.73,-187 234.73,-151 321.27,-151 321.27,-187"/>
<text text-anchor="middle" x="278" y="-164.8" font-family="Times,serif" font-size="14.00">FilesModule</text>
</g>
<!-- FilesService&#45;&gt;FilesModule -->
<g id="edge1" class="edge">
<title>FilesService&#45;&gt;FilesModule</title>
<path fill="none" stroke="black" d="M317.95,-104C312.56,-104 309.07,-104 309.07,-104 309.07,-104 309.07,-140.89 309.07,-140.89"/>
<polygon fill="black" stroke="black" points="305.57,-140.89 309.07,-150.89 312.57,-140.89 305.57,-140.89"/>
</g>
<!-- GridFsMulterConfigService -->
<g id="node2" class="node">
<title>GridFsMulterConfigService</title>
<ellipse fill="#fdb462" stroke="black" cx="180" cy="-104" rx="119.84" ry="18"/>
<text text-anchor="middle" x="180" y="-99.8" font-family="Times,serif" font-size="14.00">GridFsMulterConfigService</text>
</g>
<!-- GridFsMulterConfigService&#45;&gt;FilesModule -->
<g id="edge2" class="edge">
<title>GridFsMulterConfigService&#45;&gt;FilesModule</title>
<path fill="none" stroke="black" d="M267.27,-116.53C267.27,-116.53 267.27,-140.85 267.27,-140.85"/>
<polygon fill="black" stroke="black" points="263.77,-140.85 267.27,-150.85 270.77,-140.85 263.77,-140.85"/>
</g>
</g>
</svg>
