<?xml version="1.0" encoding="UTF-8" standalone="no"?>
<!DOCTYPE svg PUBLIC "-//W3C//DTD SVG 1.1//EN"
 "http://www.w3.org/Graphics/SVG/1.1/DTD/svg11.dtd">
<!-- Generated by graphviz version 2.47.0 (20210316.0004)
 -->
<!-- Title: dependencies Pages: 1 -->
<svg width="504pt" height="284pt"
 viewBox="0.00 0.00 504.00 284.00" xmlns="http://www.w3.org/2000/svg" xmlns:xlink="http://www.w3.org/1999/xlink">
<g id="graph0" class="graph" transform="scale(1 1) rotate(0) translate(4 280)">
<title>dependencies</title>
<polygon fill="white" stroke="transparent" points="-4,4 -4,-280 500,-280 500,4 -4,4"/>
<text text-anchor="start" x="227.01" y="-42.4" font-family="sans-serif" font-weight="bold" font-size="14.00">Legend</text>
<polygon fill="#ffffb3" stroke="transparent" points="14,-10 14,-30 34,-30 34,-10 14,-10"/>
<text text-anchor="start" x="37.63" y="-15.4" font-family="sans-serif" font-size="14.00"> &#160;Declarations</text>
<polygon fill="#8dd3c7" stroke="transparent" points="127,-10 127,-30 147,-30 147,-10 127,-10"/>
<text text-anchor="start" x="150.73" y="-15.4" font-family="sans-serif" font-size="14.00"> &#160;Module</text>
<polygon fill="#80b1d3" stroke="transparent" points="213,-10 213,-30 233,-30 233,-10 213,-10"/>
<text text-anchor="start" x="236.78" y="-15.4" font-family="sans-serif" font-size="14.00"> &#160;Bootstrap</text>
<polygon fill="#fdb462" stroke="transparent" points="310,-10 310,-30 330,-30 330,-10 310,-10"/>
<text text-anchor="start" x="333.67" y="-15.4" font-family="sans-serif" font-size="14.00"> &#160;Providers</text>
<polygon fill="#fb8072" stroke="transparent" points="406,-10 406,-30 426,-30 426,-10 406,-10"/>
<text text-anchor="start" x="429.73" y="-15.4" font-family="sans-serif" font-size="14.00"> &#160;Exports</text>
<g id="clust1" class="cluster">
<title>cluster_SupportsModule</title>
<polygon fill="none" stroke="black" stroke-dasharray="1,5" points="97,-70 97,-268 399,-268 399,-70 97,-70"/>
</g>
<g id="clust3" class="cluster">
<title>cluster_SupportsModule_imports</title>
<polygon fill="none" stroke="black" points="277,-78 277,-130 391,-130 391,-78 277,-78"/>
</g>
<g id="clust6" class="cluster">
<title>cluster_SupportsModule_providers</title>
<polygon fill="none" stroke="black" points="105,-78 105,-130 269,-130 269,-78 105,-78"/>
</g>
<g id="clust4" class="cluster">
<title>cluster_SupportsModule_exports</title>
<polygon fill="none" stroke="black" points="193,-208 193,-260 321,-260 321,-208 193,-208"/>
</g>
<!-- TopicsModule -->
<g id="node1" class="node">
<title>TopicsModule</title>
<polygon fill="#8dd3c7" stroke="black" points="382.65,-122 379.65,-126 358.65,-126 355.65,-122 285.35,-122 285.35,-86 382.65,-86 382.65,-122"/>
<text text-anchor="middle" x="334" y="-99.8" font-family="Times,serif" font-size="14.00">TopicsModule</text>
</g>
<!-- SupportsModule -->
<g id="node2" class="node">
<title>SupportsModule</title>
<polygon fill="#8dd3c7" stroke="black" points="311.83,-187 308.83,-191 287.83,-191 284.83,-187 202.17,-187 202.17,-151 311.83,-151 311.83,-187"/>
<text text-anchor="middle" x="257" y="-164.8" font-family="Times,serif" font-size="14.00">SupportsModule</text>
</g>
<!-- TopicsModule&#45;&gt;SupportsModule -->
<g id="edge1" class="edge">
<title>TopicsModule&#45;&gt;SupportsModule</title>
<path fill="none" stroke="black" d="M298.42,-122.11C298.42,-122.11 298.42,-140.99 298.42,-140.99"/>
<polygon fill="black" stroke="black" points="294.92,-140.99 298.42,-150.99 301.92,-140.99 294.92,-140.99"/>
</g>
<!-- SupportsService  -->
<g id="node3" class="node">
<title>SupportsService </title>
<polygon fill="#fb8072" stroke="black" points="312.76,-252 201.24,-252 201.24,-216 312.76,-216 312.76,-252"/>
<text text-anchor="middle" x="257" y="-229.8" font-family="Times,serif" font-size="14.00">SupportsService </text>
</g>
<!-- SupportsModule&#45;&gt;SupportsService  -->
<g id="edge2" class="edge">
<title>SupportsModule&#45;&gt;SupportsService </title>
<path fill="none" stroke="black" stroke-dasharray="5,2" d="M257,-187.11C257,-187.11 257,-205.99 257,-205.99"/>
<polygon fill="black" stroke="black" points="253.5,-205.99 257,-215.99 260.5,-205.99 253.5,-205.99"/>
</g>
<!-- SupportsService -->
<g id="node4" class="node">
<title>SupportsService</title>
<ellipse fill="#fdb462" stroke="black" cx="187" cy="-104" rx="74.16" ry="18"/>
<text text-anchor="middle" x="187" y="-99.8" font-family="Times,serif" font-size="14.00">SupportsService</text>
</g>
<!-- SupportsService&#45;&gt;SupportsModule -->
<g id="edge3" class="edge">
<title>SupportsService&#45;&gt;SupportsModule</title>
<path fill="none" stroke="black" d="M231.83,-118.43C231.83,-118.43 231.83,-140.89 231.83,-140.89"/>
<polygon fill="black" stroke="black" points="228.33,-140.89 231.83,-150.89 235.33,-140.89 228.33,-140.89"/>
</g>
</g>
</svg>
