<?xml version="1.0" encoding="UTF-8" standalone="no"?>
<!DOCTYPE svg PUBLIC "-//W3C//DTD SVG 1.1//EN"
 "http://www.w3.org/Graphics/SVG/1.1/DTD/svg11.dtd">
<!-- Generated by graphviz version 2.47.0 (20210316.0004)
 -->
<!-- Title: dependencies Pages: 1 -->
<svg width="504pt" height="284pt"
 viewBox="0.00 0.00 504.00 284.00" xmlns="http://www.w3.org/2000/svg" xmlns:xlink="http://www.w3.org/1999/xlink">
<g id="graph0" class="graph" transform="scale(1 1) rotate(0) translate(4 280)">
<title>dependencies</title>
<polygon fill="white" stroke="transparent" points="-4,4 -4,-280 500,-280 500,4 -4,4"/>
<text text-anchor="start" x="227.01" y="-42.4" font-family="sans-serif" font-weight="bold" font-size="14.00">Legend</text>
<polygon fill="#ffffb3" stroke="transparent" points="14,-10 14,-30 34,-30 34,-10 14,-10"/>
<text text-anchor="start" x="37.63" y="-15.4" font-family="sans-serif" font-size="14.00"> &#160;Declarations</text>
<polygon fill="#8dd3c7" stroke="transparent" points="127,-10 127,-30 147,-30 147,-10 127,-10"/>
<text text-anchor="start" x="150.73" y="-15.4" font-family="sans-serif" font-size="14.00"> &#160;Module</text>
<polygon fill="#80b1d3" stroke="transparent" points="213,-10 213,-30 233,-30 233,-10 213,-10"/>
<text text-anchor="start" x="236.78" y="-15.4" font-family="sans-serif" font-size="14.00"> &#160;Bootstrap</text>
<polygon fill="#fdb462" stroke="transparent" points="310,-10 310,-30 330,-30 330,-10 310,-10"/>
<text text-anchor="start" x="333.67" y="-15.4" font-family="sans-serif" font-size="14.00"> &#160;Providers</text>
<polygon fill="#fb8072" stroke="transparent" points="406,-10 406,-30 426,-30 426,-10 406,-10"/>
<text text-anchor="start" x="429.73" y="-15.4" font-family="sans-serif" font-size="14.00"> &#160;Exports</text>
<g id="clust1" class="cluster">
<title>cluster_SupportsModule</title>
<polygon fill="none" stroke="black" stroke-dasharray="1,5" points="97,-70 97,-268 399,-268 399,-70 97,-70"/>
</g>
<g id="clust6" class="cluster">
<title>cluster_SupportsModule_providers</title>
<polygon fill="none" stroke="black" points="227,-78 227,-130 391,-130 391,-78 227,-78"/>
</g>
<g id="clust4" class="cluster">
<title>cluster_SupportsModule_exports</title>
<polygon fill="none" stroke="black" points="175,-208 175,-260 303,-260 303,-208 175,-208"/>
</g>
<g id="clust3" class="cluster">
<title>cluster_SupportsModule_imports</title>
<polygon fill="none" stroke="black" points="105,-78 105,-130 219,-130 219,-78 105,-78"/>
</g>
<!-- TopicsModule -->
<g id="node1" class="node">
<title>TopicsModule</title>
<polygon fill="#8dd3c7" stroke="black" points="210.65,-122 207.65,-126 186.65,-126 183.65,-122 113.35,-122 113.35,-86 210.65,-86 210.65,-122"/>
<text text-anchor="middle" x="162" y="-99.8" font-family="Times,serif" font-size="14.00">TopicsModule</text>
</g>
<!-- SupportsModule -->
<g id="node2" class="node">
<title>SupportsModule</title>
<polygon fill="#8dd3c7" stroke="black" points="293.83,-187 290.83,-191 269.83,-191 266.83,-187 184.17,-187 184.17,-151 293.83,-151 293.83,-187"/>
<text text-anchor="middle" x="239" y="-164.8" font-family="Times,serif" font-size="14.00">SupportsModule</text>
</g>
<!-- TopicsModule&#45;&gt;SupportsModule -->
<g id="edge1" class="edge">
<title>TopicsModule&#45;&gt;SupportsModule</title>
<path fill="none" stroke="black" d="M197.58,-122.11C197.58,-122.11 197.58,-140.99 197.58,-140.99"/>
<polygon fill="black" stroke="black" points="194.08,-140.99 197.58,-150.99 201.08,-140.99 194.08,-140.99"/>
</g>
<!-- SupportsService  -->
<g id="node3" class="node">
<title>SupportsService </title>
<polygon fill="#fb8072" stroke="black" points="294.76,-252 183.24,-252 183.24,-216 294.76,-216 294.76,-252"/>
<text text-anchor="middle" x="239" y="-229.8" font-family="Times,serif" font-size="14.00">SupportsService </text>
</g>
<!-- SupportsModule&#45;&gt;SupportsService  -->
<g id="edge2" class="edge">
<title>SupportsModule&#45;&gt;SupportsService </title>
<path fill="none" stroke="black" stroke-dasharray="5,2" d="M239,-187.11C239,-187.11 239,-205.99 239,-205.99"/>
<polygon fill="black" stroke="black" points="235.5,-205.99 239,-215.99 242.5,-205.99 235.5,-205.99"/>
</g>
<!-- SupportsService -->
<g id="node4" class="node">
<title>SupportsService</title>
<ellipse fill="#fdb462" stroke="black" cx="309" cy="-104" rx="74.16" ry="18"/>
<text text-anchor="middle" x="309" y="-99.8" font-family="Times,serif" font-size="14.00">SupportsService</text>
</g>
<!-- SupportsService&#45;&gt;SupportsModule -->
<g id="edge3" class="edge">
<title>SupportsService&#45;&gt;SupportsModule</title>
<path fill="none" stroke="black" d="M264.17,-118.43C264.17,-118.43 264.17,-140.89 264.17,-140.89"/>
<polygon fill="black" stroke="black" points="260.67,-140.89 264.17,-150.89 267.67,-140.89 260.67,-140.89"/>
</g>
</g>
</svg>
