<?xml version="1.0" encoding="UTF-8" standalone="no"?>
<!DOCTYPE svg PUBLIC "-//W3C//DTD SVG 1.1//EN"
 "http://www.w3.org/Graphics/SVG/1.1/DTD/svg11.dtd">
<!-- Generated by graphviz version 2.47.0 (20210316.0004)
 -->
<!-- Title: dependencies Pages: 1 -->
<svg width="528pt" height="211pt"
 viewBox="0.00 0.00 528.00 211.00" xmlns="http://www.w3.org/2000/svg" xmlns:xlink="http://www.w3.org/1999/xlink">
<g id="graph0" class="graph" transform="scale(1 1) rotate(0) translate(4 207)">
<title>dependencies</title>
<polygon fill="white" stroke="transparent" points="-4,4 -4,-207 524,-207 524,4 -4,4"/>
<text text-anchor="start" x="239.01" y="-42.4" font-family="sans-serif" font-weight="bold" font-size="14.00">Legend</text>
<polygon fill="#ffffb3" stroke="transparent" points="26,-10 26,-30 46,-30 46,-10 26,-10"/>
<text text-anchor="start" x="49.63" y="-15.4" font-family="sans-serif" font-size="14.00"> &#160;Declarations</text>
<polygon fill="#8dd3c7" stroke="transparent" points="139,-10 139,-30 159,-30 159,-10 139,-10"/>
<text text-anchor="start" x="162.73" y="-15.4" font-family="sans-serif" font-size="14.00"> &#160;Module</text>
<polygon fill="#80b1d3" stroke="transparent" points="225,-10 225,-30 245,-30 245,-10 225,-10"/>
<text text-anchor="start" x="248.78" y="-15.4" font-family="sans-serif" font-size="14.00"> &#160;Bootstrap</text>
<polygon fill="#fdb462" stroke="transparent" points="322,-10 322,-30 342,-30 342,-10 322,-10"/>
<text text-anchor="start" x="345.67" y="-15.4" font-family="sans-serif" font-size="14.00"> &#160;Providers</text>
<polygon fill="#fb8072" stroke="transparent" points="418,-10 418,-30 438,-30 438,-10 418,-10"/>
<text text-anchor="start" x="441.73" y="-15.4" font-family="sans-serif" font-size="14.00"> &#160;Exports</text>
<g id="clust1" class="cluster">
<title>cluster_AppModule</title>
<polygon fill="none" stroke="black" stroke-dasharray="1,5" points="8,-70 8,-195 512,-195 512,-70 8,-70"/>
</g>
<g id="clust3" class="cluster">
<title>cluster_AppModule_imports</title>
<polygon fill="none" stroke="black" points="154,-78 154,-130 504,-130 504,-78 154,-78"/>
</g>
<g id="clust6" class="cluster">
<title>cluster_AppModule_providers</title>
<polygon fill="none" stroke="black" points="16,-78 16,-130 146,-130 146,-78 16,-78"/>
</g>
<!-- AuthModule -->
<g id="node1" class="node">
<title>AuthModule</title>
<polygon fill="#8dd3c7" stroke="black" points="495.55,-122 492.55,-126 471.55,-126 468.55,-122 408.45,-122 408.45,-86 495.55,-86 495.55,-122"/>
<text text-anchor="middle" x="452" y="-99.8" font-family="Times,serif" font-size="14.00">AuthModule</text>
</g>
<!-- AppModule -->
<g id="node4" class="node">
<title>AppModule</title>
<polygon fill="#8dd3c7" stroke="black" points="310.66,-187 307.66,-191 286.66,-191 283.66,-187 227.34,-187 227.34,-151 310.66,-151 310.66,-187"/>
<text text-anchor="middle" x="269" y="-164.8" font-family="Times,serif" font-size="14.00">AppModule</text>
</g>
<!-- AuthModule&#45;&gt;AppModule -->
<g id="edge1" class="edge">
<title>AuthModule&#45;&gt;AppModule</title>
<path fill="none" stroke="black" d="M452,-122.11C452,-141.34 452,-169 452,-169 452,-169 320.98,-169 320.98,-169"/>
<polygon fill="black" stroke="black" points="320.98,-165.5 310.98,-169 320.98,-172.5 320.98,-165.5"/>
</g>
<!-- CategoriesModule -->
<g id="node2" class="node">
<title>CategoriesModule</title>
<polygon fill="#8dd3c7" stroke="black" points="390.92,-122 387.92,-126 366.92,-126 363.92,-122 271.08,-122 271.08,-86 390.92,-86 390.92,-122"/>
<text text-anchor="middle" x="331" y="-99.8" font-family="Times,serif" font-size="14.00">CategoriesModule</text>
</g>
<!-- CategoriesModule&#45;&gt;AppModule -->
<g id="edge2" class="edge">
<title>CategoriesModule&#45;&gt;AppModule</title>
<path fill="none" stroke="black" d="M291.06,-122.11C291.06,-122.11 291.06,-140.99 291.06,-140.99"/>
<polygon fill="black" stroke="black" points="287.56,-140.99 291.06,-150.99 294.56,-140.99 287.56,-140.99"/>
</g>
<!-- UsersModule -->
<g id="node3" class="node">
<title>UsersModule</title>
<polygon fill="#8dd3c7" stroke="black" points="253.92,-122 250.92,-126 229.92,-126 226.92,-122 162.08,-122 162.08,-86 253.92,-86 253.92,-122"/>
<text text-anchor="middle" x="208" y="-99.8" font-family="Times,serif" font-size="14.00">UsersModule</text>
</g>
<!-- UsersModule&#45;&gt;AppModule -->
<g id="edge3" class="edge">
<title>UsersModule&#45;&gt;AppModule</title>
<path fill="none" stroke="black" d="M240.44,-122.11C240.44,-122.11 240.44,-140.99 240.44,-140.99"/>
<polygon fill="black" stroke="black" points="236.94,-140.99 240.44,-150.99 243.94,-140.99 236.94,-140.99"/>
</g>
<!-- AppService -->
<g id="node5" class="node">
<title>AppService</title>
<ellipse fill="#fdb462" stroke="black" cx="81" cy="-104" rx="56.74" ry="18"/>
<text text-anchor="middle" x="81" y="-99.8" font-family="Times,serif" font-size="14.00">AppService</text>
</g>
<!-- AppService&#45;&gt;AppModule -->
<g id="edge4" class="edge">
<title>AppService&#45;&gt;AppModule</title>
<path fill="none" stroke="black" d="M81,-122.11C81,-141.34 81,-169 81,-169 81,-169 217.28,-169 217.28,-169"/>
<polygon fill="black" stroke="black" points="217.28,-172.5 227.28,-169 217.28,-165.5 217.28,-172.5"/>
</g>
</g>
</svg>
