<?xml version="1.0" encoding="UTF-8" standalone="no"?>
<!DOCTYPE svg PUBLIC "-//W3C//DTD SVG 1.1//EN"
 "http://www.w3.org/Graphics/SVG/1.1/DTD/svg11.dtd">
<!-- Generated by graphviz version 2.47.0 (20210316.0004)
 -->
<!-- Title: dependencies Pages: 1 -->
<svg width="1674pt" height="211pt"
 viewBox="0.00 0.00 1674.00 211.00" xmlns="http://www.w3.org/2000/svg" xmlns:xlink="http://www.w3.org/1999/xlink">
<g id="graph0" class="graph" transform="scale(1 1) rotate(0) translate(4 207)">
<title>dependencies</title>
<polygon fill="white" stroke="transparent" points="-4,4 -4,-207 1670,-207 1670,4 -4,4"/>
<text text-anchor="start" x="812.01" y="-42.4" font-family="sans-serif" font-weight="bold" font-size="14.00">Legend</text>
<polygon fill="#ffffb3" stroke="transparent" points="599,-10 599,-30 619,-30 619,-10 599,-10"/>
<text text-anchor="start" x="622.63" y="-15.4" font-family="sans-serif" font-size="14.00"> &#160;Declarations</text>
<polygon fill="#8dd3c7" stroke="transparent" points="712,-10 712,-30 732,-30 732,-10 712,-10"/>
<text text-anchor="start" x="735.73" y="-15.4" font-family="sans-serif" font-size="14.00"> &#160;Module</text>
<polygon fill="#80b1d3" stroke="transparent" points="798,-10 798,-30 818,-30 818,-10 798,-10"/>
<text text-anchor="start" x="821.78" y="-15.4" font-family="sans-serif" font-size="14.00"> &#160;Bootstrap</text>
<polygon fill="#fdb462" stroke="transparent" points="895,-10 895,-30 915,-30 915,-10 895,-10"/>
<text text-anchor="start" x="918.67" y="-15.4" font-family="sans-serif" font-size="14.00"> &#160;Providers</text>
<polygon fill="#fb8072" stroke="transparent" points="991,-10 991,-30 1011,-30 1011,-10 991,-10"/>
<text text-anchor="start" x="1014.73" y="-15.4" font-family="sans-serif" font-size="14.00"> &#160;Exports</text>
<g id="clust1" class="cluster">
<title>cluster_AppModule</title>
<polygon fill="none" stroke="black" stroke-dasharray="1,5" points="8,-70 8,-195 1658,-195 1658,-70 8,-70"/>
</g>
<g id="clust3" class="cluster">
<title>cluster_AppModule_imports</title>
<polygon fill="none" stroke="black" points="154,-78 154,-130 1650,-130 1650,-78 154,-78"/>
</g>
<g id="clust6" class="cluster">
<title>cluster_AppModule_providers</title>
<polygon fill="none" stroke="black" points="16,-78 16,-130 146,-130 146,-78 16,-78"/>
</g>
<!-- AuthModule -->
<g id="node1" class="node">
<title>AuthModule</title>
<polygon fill="#8dd3c7" stroke="black" points="1641.55,-122 1638.55,-126 1617.55,-126 1614.55,-122 1554.45,-122 1554.45,-86 1641.55,-86 1641.55,-122"/>
<text text-anchor="middle" x="1598" y="-99.8" font-family="Times,serif" font-size="14.00">AuthModule</text>
</g>
<!-- AppModule -->
<g id="node14" class="node">
<title>AppModule</title>
<polygon fill="#8dd3c7" stroke="black" points="906.66,-187 903.66,-191 882.66,-191 879.66,-187 823.34,-187 823.34,-151 906.66,-151 906.66,-187"/>
<text text-anchor="middle" x="865" y="-164.8" font-family="Times,serif" font-size="14.00">AppModule</text>
</g>
<!-- AuthModule&#45;&gt;AppModule -->
<g id="edge1" class="edge">
<title>AuthModule&#45;&gt;AppModule</title>
<path fill="none" stroke="black" d="M1598,-122.09C1598,-145.13 1598,-182 1598,-182 1598,-182 916.78,-182 916.78,-182"/>
<polygon fill="black" stroke="black" points="916.78,-178.5 906.78,-182 916.78,-185.5 916.78,-178.5"/>
</g>
<!-- CaslModule -->
<g id="node2" class="node">
<title>CaslModule</title>
<polygon fill="#8dd3c7" stroke="black" points="1536.44,-122 1533.44,-126 1512.44,-126 1509.44,-122 1451.56,-122 1451.56,-86 1536.44,-86 1536.44,-122"/>
<text text-anchor="middle" x="1494" y="-99.8" font-family="Times,serif" font-size="14.00">CaslModule</text>
</g>
<!-- CaslModule&#45;&gt;AppModule -->
<g id="edge2" class="edge">
<title>CaslModule&#45;&gt;AppModule</title>
<path fill="none" stroke="black" d="M1494,-122.04C1494,-143.66 1494,-177 1494,-177 1494,-177 916.76,-177 916.76,-177"/>
<polygon fill="black" stroke="black" points="916.76,-173.5 906.76,-177 916.76,-180.5 916.76,-173.5"/>
</g>
<!-- CategoriesModule -->
<g id="node3" class="node">
<title>CategoriesModule</title>
<polygon fill="#8dd3c7" stroke="black" points="1433.92,-122 1430.92,-126 1409.92,-126 1406.92,-122 1314.08,-122 1314.08,-86 1433.92,-86 1433.92,-122"/>
<text text-anchor="middle" x="1374" y="-99.8" font-family="Times,serif" font-size="14.00">CategoriesModule</text>
</g>
<!-- CategoriesModule&#45;&gt;AppModule -->
<g id="edge3" class="edge">
<title>CategoriesModule&#45;&gt;AppModule</title>
<path fill="none" stroke="black" d="M1374,-122.22C1374,-142.37 1374,-172 1374,-172 1374,-172 917.09,-172 917.09,-172"/>
<polygon fill="black" stroke="black" points="917.09,-168.5 907.09,-172 917.09,-175.5 917.09,-168.5"/>
</g>
<!-- EventsModule -->
<g id="node4" class="node">
<title>EventsModule</title>
<polygon fill="#8dd3c7" stroke="black" points="1295.65,-122 1292.65,-126 1271.65,-126 1268.65,-122 1198.35,-122 1198.35,-86 1295.65,-86 1295.65,-122"/>
<text text-anchor="middle" x="1247" y="-99.8" font-family="Times,serif" font-size="14.00">EventsModule</text>
</g>
<!-- EventsModule&#45;&gt;AppModule -->
<g id="edge4" class="edge">
<title>EventsModule&#45;&gt;AppModule</title>
<path fill="none" stroke="black" d="M1247,-122.22C1247,-140.83 1247,-167 1247,-167 1247,-167 916.97,-167 916.97,-167"/>
<polygon fill="black" stroke="black" points="916.97,-163.5 906.97,-167 916.97,-170.5 916.97,-163.5"/>
</g>
<!-- FilesModule -->
<g id="node5" class="node">
<title>FilesModule</title>
<polygon fill="#8dd3c7" stroke="black" points="1180.27,-122 1177.27,-126 1156.27,-126 1153.27,-122 1093.73,-122 1093.73,-86 1180.27,-86 1180.27,-122"/>
<text text-anchor="middle" x="1137" y="-99.8" font-family="Times,serif" font-size="14.00">FilesModule</text>
</g>
<!-- FilesModule&#45;&gt;AppModule -->
<g id="edge5" class="edge">
<title>FilesModule&#45;&gt;AppModule</title>
<path fill="none" stroke="black" d="M1137,-122.03C1137,-139.06 1137,-162 1137,-162 1137,-162 916.9,-162 916.9,-162"/>
<polygon fill="black" stroke="black" points="916.9,-158.5 906.9,-162 916.9,-165.5 916.9,-158.5"/>
</g>
<!-- LikesModule -->
<g id="node6" class="node">
<title>LikesModule</title>
<polygon fill="#8dd3c7" stroke="black" points="1075.15,-122 1072.15,-126 1051.15,-126 1048.15,-122 984.85,-122 984.85,-86 1075.15,-86 1075.15,-122"/>
<text text-anchor="middle" x="1030" y="-99.8" font-family="Times,serif" font-size="14.00">LikesModule</text>
</g>
<!-- LikesModule&#45;&gt;AppModule -->
<g id="edge6" class="edge">
<title>LikesModule&#45;&gt;AppModule</title>
<path fill="none" stroke="black" d="M1030,-122.24C1030,-137.57 1030,-157 1030,-157 1030,-157 917.06,-157 917.06,-157"/>
<polygon fill="black" stroke="black" points="917.06,-153.5 907.06,-157 917.06,-160.5 917.06,-153.5"/>
</g>
<!-- PinsModule -->
<g id="node7" class="node">
<title>PinsModule</title>
<polygon fill="#8dd3c7" stroke="black" points="966.67,-122 963.67,-126 942.67,-126 939.67,-122 883.33,-122 883.33,-86 966.67,-86 966.67,-122"/>
<text text-anchor="middle" x="925" y="-99.8" font-family="Times,serif" font-size="14.00">PinsModule</text>
</g>
<!-- PinsModule&#45;&gt;AppModule -->
<g id="edge7" class="edge">
<title>PinsModule&#45;&gt;AppModule</title>
<path fill="none" stroke="black" d="M895,-122.11C895,-122.11 895,-140.99 895,-140.99"/>
<polygon fill="black" stroke="black" points="891.5,-140.99 895,-150.99 898.5,-140.99 891.5,-140.99"/>
</g>
<!-- RejoindersModule -->
<g id="node8" class="node">
<title>RejoindersModule</title>
<polygon fill="#8dd3c7" stroke="black" points="865.2,-122 862.2,-126 841.2,-126 838.2,-122 744.8,-122 744.8,-86 865.2,-86 865.2,-122"/>
<text text-anchor="middle" x="805" y="-99.8" font-family="Times,serif" font-size="14.00">RejoindersModule</text>
</g>
<!-- RejoindersModule&#45;&gt;AppModule -->
<g id="edge8" class="edge">
<title>RejoindersModule&#45;&gt;AppModule</title>
<path fill="none" stroke="black" d="M844.14,-122.11C844.14,-122.11 844.14,-140.99 844.14,-140.99"/>
<polygon fill="black" stroke="black" points="840.64,-140.99 844.14,-150.99 847.64,-140.99 840.64,-140.99"/>
</g>
<!-- RepliesModule -->
<g id="node9" class="node">
<title>RepliesModule</title>
<polygon fill="#8dd3c7" stroke="black" points="726.54,-122 723.54,-126 702.54,-126 699.54,-122 625.46,-122 625.46,-86 726.54,-86 726.54,-122"/>
<text text-anchor="middle" x="676" y="-99.8" font-family="Times,serif" font-size="14.00">RepliesModule</text>
</g>
<!-- RepliesModule&#45;&gt;AppModule -->
<g id="edge9" class="edge">
<title>RepliesModule&#45;&gt;AppModule</title>
<path fill="none" stroke="black" d="M676,-122.24C676,-137.57 676,-157 676,-157 676,-157 813.05,-157 813.05,-157"/>
<polygon fill="black" stroke="black" points="813.05,-160.5 823.05,-157 813.05,-153.5 813.05,-160.5"/>
</g>
<!-- SeedsModule -->
<g id="node10" class="node">
<title>SeedsModule</title>
<polygon fill="#8dd3c7" stroke="black" points="607.21,-122 604.21,-126 583.21,-126 580.21,-122 514.79,-122 514.79,-86 607.21,-86 607.21,-122"/>
<text text-anchor="middle" x="561" y="-99.8" font-family="Times,serif" font-size="14.00">SeedsModule</text>
</g>
<!-- SeedsModule&#45;&gt;AppModule -->
<g id="edge10" class="edge">
<title>SeedsModule&#45;&gt;AppModule</title>
<path fill="none" stroke="black" d="M561,-122.03C561,-139.06 561,-162 561,-162 561,-162 813.05,-162 813.05,-162"/>
<polygon fill="black" stroke="black" points="813.05,-165.5 823.05,-162 813.05,-158.5 813.05,-165.5"/>
</g>
<!-- SupportsModule -->
<g id="node11" class="node">
<title>SupportsModule</title>
<polygon fill="#8dd3c7" stroke="black" points="496.83,-122 493.83,-126 472.83,-126 469.83,-122 387.17,-122 387.17,-86 496.83,-86 496.83,-122"/>
<text text-anchor="middle" x="442" y="-99.8" font-family="Times,serif" font-size="14.00">SupportsModule</text>
</g>
<!-- SupportsModule&#45;&gt;AppModule -->
<g id="edge11" class="edge">
<title>SupportsModule&#45;&gt;AppModule</title>
<path fill="none" stroke="black" d="M442,-122.22C442,-140.83 442,-167 442,-167 442,-167 813.28,-167 813.28,-167"/>
<polygon fill="black" stroke="black" points="813.28,-170.5 823.28,-167 813.28,-163.5 813.28,-170.5"/>
</g>
<!-- TopicsModule -->
<g id="node12" class="node">
<title>TopicsModule</title>
<polygon fill="#8dd3c7" stroke="black" points="369.65,-122 366.65,-126 345.65,-126 342.65,-122 272.35,-122 272.35,-86 369.65,-86 369.65,-122"/>
<text text-anchor="middle" x="321" y="-99.8" font-family="Times,serif" font-size="14.00">TopicsModule</text>
</g>
<!-- TopicsModule&#45;&gt;AppModule -->
<g id="edge12" class="edge">
<title>TopicsModule&#45;&gt;AppModule</title>
<path fill="none" stroke="black" d="M321,-122.22C321,-142.37 321,-172 321,-172 321,-172 813.22,-172 813.22,-172"/>
<polygon fill="black" stroke="black" points="813.22,-175.5 823.22,-172 813.22,-168.5 813.22,-175.5"/>
</g>
<!-- UsersModule -->
<g id="node13" class="node">
<title>UsersModule</title>
<polygon fill="#8dd3c7" stroke="black" points="253.92,-122 250.92,-126 229.92,-126 226.92,-122 162.08,-122 162.08,-86 253.92,-86 253.92,-122"/>
<text text-anchor="middle" x="208" y="-99.8" font-family="Times,serif" font-size="14.00">UsersModule</text>
</g>
<!-- UsersModule&#45;&gt;AppModule -->
<g id="edge13" class="edge">
<title>UsersModule&#45;&gt;AppModule</title>
<path fill="none" stroke="black" d="M208,-122.04C208,-143.66 208,-177 208,-177 208,-177 813.15,-177 813.15,-177"/>
<polygon fill="black" stroke="black" points="813.15,-180.5 823.15,-177 813.15,-173.5 813.15,-180.5"/>
</g>
<!-- AppService -->
<g id="node15" class="node">
<title>AppService</title>
<ellipse fill="#fdb462" stroke="black" cx="81" cy="-104" rx="56.74" ry="18"/>
<text text-anchor="middle" x="81" y="-99.8" font-family="Times,serif" font-size="14.00">AppService</text>
</g>
<!-- AppService&#45;&gt;AppModule -->
<g id="edge14" class="edge">
<title>AppService&#45;&gt;AppModule</title>
<path fill="none" stroke="black" d="M81,-122.09C81,-145.13 81,-182 81,-182 81,-182 813.13,-182 813.13,-182"/>
<polygon fill="black" stroke="black" points="813.13,-185.5 823.13,-182 813.13,-178.5 813.13,-185.5"/>
</g>
</g>
</svg>
